<?xml version="1.0" standalone="no"?>
<!DOCTYPE svg PUBLIC "-//W3C//DTD SVG 20010904//EN"
 "http://www.w3.org/TR/2001/REC-SVG-20010904/DTD/svg10.dtd">
<svg version="1.0" xmlns="http://www.w3.org/2000/svg"
 width="640.000000pt" height="640.000000pt" viewBox="0 0 640.000000 640.000000"
 preserveAspectRatio="xMidYMid meet">

<g transform="translate(0.000000,640.000000) scale(0.100000,-0.100000)"
fill="#000000" stroke="none">
<path d="M0 3200 l0 -3200 3200 0 3200 0 0 3200 0 3200 -3200 0 -3200 0 0
-3200z m3625 3062 c1001 -157 1831 -748 2294 -1633 420 -802 462 -1754 115
-2602 -96 -236 -259 -515 -421 -722 -506 -646 -1246 -1063 -2073 -1167 -139
-17 -582 -17 -720 0 -524 66 -1016 258 -1445 564 -437 310 -820 787 -1029
1281 -411 969 -316 2052 259 2922 504 765 1314 1262 2230 1370 179 21 618 14
790 -13z"/>
<path d="M3140 5978 c-55 -38 -80 -97 -80 -192 1 -121 43 -197 118 -212 26 -5
32 -3 32 11 0 10 -7 23 -14 29 -12 9 -15 46 -18 174 -2 144 0 165 15 173 18
10 12 39 -8 39 -6 0 -27 -10 -45 -22z"/>
<path d="M3220 5981 c0 -10 9 -21 20 -24 13 -3 31 -28 48 -66 16 -34 31 -59
35 -55 10 10 9 164 -1 164 -4 0 -13 -5 -18 -10 -8 -8 -19 -8 -38 0 -38 14 -46
13 -46 -9z"/>
<path d="M2920 5983 c-8 -2 -21 -7 -29 -9 -11 -3 -8 -11 11 -32 23 -24 27 -40
37 -154 12 -136 7 -169 -28 -188 -20 -10 -19 -40 1 -40 16 0 56 50 61 78 3 15
1 87 -5 159 -10 122 -10 135 6 152 29 32 -2 52 -54 34z"/>
<path d="M3534 5845 l7 -135 -30 0 c-24 0 -31 -4 -31 -20 0 -16 7 -20 35 -20
33 0 35 -2 35 -34 0 -19 -5 -36 -12 -38 -6 -2 -9 -11 -6 -20 5 -11 27 -17 79
-21 40 -3 75 -4 78 -2 2 3 -1 15 -7 28 -6 12 -14 56 -17 97 -3 41 -11 123 -17
182 l-11 106 -30 6 c-16 3 -41 6 -55 6 l-25 0 7 -135z"/>
<path d="M2708 5963 c-40 -4 -48 -18 -24 -37 10 -8 18 -50 26 -136 17 -181 23
-198 73 -221 55 -24 97 -25 97 -1 0 10 -8 25 -19 34 -19 16 -25 51 -40 246 -5
62 -3 86 6 94 31 25 -10 32 -119 21z"/>
<path d="M3791 5912 c-24 -88 -12 -140 18 -77 8 17 25 43 38 59 27 33 27 33
-15 46 -30 8 -32 7 -41 -28z"/>
<path d="M3851 5773 c-47 -204 -50 -213 -67 -213 -9 0 -14 -7 -12 -17 2 -11
26 -21 78 -34 80 -19 99 -14 79 19 -11 17 -7 46 26 184 21 90 40 168 42 174 5
14 -11 20 -68 29 l-44 7 -34 -149z"/>
<path d="M2430 5891 c0 -11 6 -21 14 -21 15 0 30 -33 45 -95 5 -22 19 -78 31
-124 18 -70 19 -89 9 -108 -28 -53 39 -40 73 14 19 31 23 52 23 113 -1 128
-65 225 -156 237 -35 5 -39 3 -39 -16z"/>
<path d="M2333 5881 c-65 -20 -71 -26 -45 -48 26 -23 96 -292 87 -335 -8 -33
-2 -34 74 -16 35 8 51 16 50 27 -1 37 -95 385 -104 387 -5 1 -33 -5 -62 -15z"/>
<path d="M3478 5825 c-47 -142 -68 -190 -89 -206 -31 -23 -15 -39 37 -39 48 0
52 4 28 31 -15 17 -14 24 10 95 15 43 32 86 37 96 6 10 9 38 7 61 l-3 42 -27
-80z"/>
<path d="M4017 5878 c-2 -7 -1 -22 4 -33 4 -11 8 -39 8 -62 2 -76 30 -47 46
46 5 32 4 46 -6 52 -20 13 -46 11 -52 -3z"/>
<path d="M4175 5829 c-4 -5 -2 -15 3 -22 15 -18 -105 -318 -130 -325 -35 -9
-17 -29 52 -56 69 -28 102 -28 80 -1 -16 20 105 321 132 328 25 7 23 26 -4 36
-13 5 -46 18 -75 30 -33 13 -54 17 -58 10z"/>
<path d="M2092 5793 c-36 -19 -40 -50 -6 -45 11 1 37 -9 58 -23 21 -14 41 -24
44 -21 9 10 -34 101 -49 103 -8 1 -29 -5 -47 -14z"/>
<path d="M1968 5733 c-59 -26 -73 -47 -39 -56 11 -2 28 -24 39 -48 11 -24 41
-89 67 -144 28 -62 44 -108 41 -121 -3 -11 -3 -23 0 -26 8 -8 124 43 124 55 0
12 -149 331 -164 351 -10 14 -18 12 -68 -11z"/>
<path d="M3310 5686 c0 -20 -49 -76 -66 -76 -8 0 -14 -9 -14 -20 0 -26 20 -25
55 2 29 23 59 83 50 98 -9 15 -25 12 -25 -4z"/>
<path d="M4419 5670 c-44 -23 -92 -81 -120 -146 -26 -58 -23 -146 6 -187 30
-40 52 -34 46 11 -1 7 32 76 75 153 55 101 84 143 101 150 37 14 22 34 -28 36
-28 2 -57 -4 -80 -17z"/>
<path d="M2138 5638 c-6 -54 -1 -68 23 -68 10 0 24 -9 31 -20 15 -24 28 -26
28 -5 0 21 -58 135 -69 135 -5 0 -11 -19 -13 -42z"/>
<path d="M4560 5635 c0 -34 -131 -271 -171 -309 -34 -32 -27 -46 25 -46 135
-1 261 215 198 340 -22 44 -52 53 -52 15z"/>
<path d="M1631 5539 c-49 -36 -43 -55 15 -50 20 1 45 -4 60 -14 47 -31 42 4
-10 68 l-22 27 -43 -31z"/>
<path d="M2257 5553 c-3 -5 -5 -25 -5 -46 0 -22 -7 -46 -17 -57 -10 -11 -15
-26 -12 -34 5 -13 11 -13 48 2 22 9 43 21 46 28 4 11 -42 114 -52 114 -2 0 -6
-3 -8 -7z"/>
<path d="M4773 5498 c3 -11 -3 -62 -13 -112 -11 -50 -30 -142 -44 -204 l-23
-112 27 -20 28 -20 34 43 c50 60 53 68 82 209 15 71 29 134 32 141 3 8 -17 31
-49 55 -61 47 -82 53 -74 20z"/>
<path d="M1522 5461 c-57 -40 -63 -51 -30 -66 32 -15 207 -262 201 -285 -9
-33 13 -29 70 11 l56 40 -57 78 c-31 42 -86 118 -122 168 l-65 91 -53 -37z"/>
<path d="M1702 5398 c2 -49 12 -68 38 -68 10 0 23 -7 30 -15 15 -19 30 -19 30
-2 0 17 -78 127 -90 127 -5 0 -8 -19 -8 -42z"/>
<path d="M4694 5358 c-84 -108 -115 -138 -140 -138 -33 0 -30 -14 9 -44 45
-34 55 -33 54 7 -1 26 11 48 54 103 45 56 89 134 75 134 -2 0 -25 -28 -52 -62z"/>
<path d="M4946 5381 c-4 -5 -3 -16 0 -24 6 -18 -8 -47 -46 -97 -15 -19 -30
-46 -33 -60 -6 -24 -5 -24 21 6 15 17 40 48 55 68 21 27 35 36 57 36 36 0 38
12 8 40 -32 30 -56 42 -62 31z"/>
<path d="M1360 5326 c0 -8 -12 -21 -27 -28 -41 -20 -34 -32 22 -38 28 -3 61
-12 74 -19 42 -23 41 3 -3 52 -44 48 -66 59 -66 33z"/>
<path d="M1838 5335 c-3 -3 -3 -28 0 -55 3 -30 0 -55 -7 -64 -6 -7 -9 -21 -5
-30 5 -13 13 -11 50 16 24 17 44 33 44 35 0 7 -60 92 -69 97 -4 3 -10 3 -13 1z"/>
<path d="M3025 5334 c-515 -42 -962 -246 -1327 -606 -364 -359 -569 -776 -628
-1278 -15 -129 -12 -412 6 -552 40 -310 154 -619 324 -876 210 -320 546 -614
875 -767 304 -142 570 -199 925 -199 355 0 621 57 925 199 329 153 665 447
875 767 227 344 340 733 340 1172 0 375 -65 657 -223 971 -105 210 -233 383
-415 563 -325 321 -720 520 -1162 587 -103 15 -417 27 -515 19z m-295 -2149
c0 -3 -19 -42 -42 -88 -150 -290 -502 -710 -773 -922 -108 -85 -185 -154 -185
-167 0 -15 38 -8 111 22 376 155 741 497 1032 965 31 50 77 114 102 143 l47
52 130 0 131 0 -7 -177 c-3 -98 -9 -244 -12 -325 -13 -292 38 -500 148 -605
127 -122 361 -169 727 -145 228 15 358 44 497 112 119 58 174 110 174 164 0
19 -5 38 -11 42 -14 8 -48 85 -65 149 -8 28 -19 115 -25 195 -12 166 -20 212
-34 212 -5 0 -23 -51 -38 -114 -81 -329 -93 -357 -181 -418 -111 -76 -275
-110 -532 -110 -167 0 -268 16 -346 56 -46 23 -106 82 -129 126 -23 45 -49
189 -49 272 0 82 28 349 49 466 l17 95 897 3 897 2 0 -99 c0 -181 -63 -470
-147 -676 -105 -258 -260 -491 -455 -682 -306 -302 -636 -478 -1073 -569 -122
-26 -146 -28 -380 -28 -233 0 -259 2 -382 27 -631 131 -1127 493 -1431 1046
-29 51 -52 95 -52 97 0 2 -11 27 -24 56 -93 208 -158 475 -172 718 l-7 110
796 0 c439 0 797 -2 797 -5z"/>
<path d="M1254 5224 c-22 -52 -11 -97 35 -143 47 -47 89 -57 157 -36 27 8 58
15 70 15 29 0 54 -31 51 -64 -3 -40 15 -42 37 -5 38 64 -1 156 -81 191 -41 18
-47 18 -97 4 -95 -28 -121 -20 -128 38 -5 43 -26 43 -44 0z"/>
<path d="M1091 5064 c-26 -29 -30 -39 -20 -50 8 -10 15 -11 25 -3 15 12 60 15
91 5 39 -12 34 12 -10 48 -24 20 -47 36 -49 36 -3 0 -20 -16 -37 -36z"/>
<path d="M5132 5089 c-46 -18 -113 -73 -142 -116 -37 -57 -46 -110 -26 -158
18 -41 38 -42 46 -1 7 35 227 239 252 232 9 -2 25 2 34 8 43 32 -98 62 -164
35z"/>
<path d="M5306 5034 c-3 -9 -6 -30 -6 -47 0 -18 -9 -47 -21 -66 -11 -18 -19
-41 -17 -50 3 -12 21 0 68 46 54 52 61 63 43 63 -16 0 -27 10 -37 35 -17 39
-21 42 -30 19z"/>
<path d="M1002 4959 c-23 -29 -42 -56 -42 -60 0 -5 11 -9 25 -9 32 0 273 -203
271 -228 0 -9 5 -17 11 -17 17 0 96 96 86 105 -4 4 -69 58 -143 120 -74 62
-142 119 -151 126 -13 12 -21 7 -57 -37z"/>
<path d="M1380 4987 c0 -12 90 -107 102 -107 3 0 8 8 11 18 2 12 17 22 37 25
49 10 31 31 -32 38 -31 3 -66 13 -79 23 -28 19 -39 20 -39 3z"/>
<path d="M1180 4976 c0 -8 5 -18 10 -21 6 -3 10 -17 10 -30 0 -27 13 -38 49
-40 14 -1 32 -3 40 -6 33 -10 16 19 -35 61 -64 52 -74 57 -74 36z"/>
<path d="M1345 4898 c5 -13 9 -45 10 -71 3 -69 16 -76 54 -30 17 20 31 40 31
44 0 8 -86 79 -95 79 -4 0 -4 -10 0 -22z"/>
<path d="M5430 4862 c0 -24 -257 -207 -287 -204 -32 2 -29 -11 14 -72 l37 -53
160 115 c89 63 165 118 169 122 11 10 -62 110 -80 110 -7 0 -13 -8 -13 -18z"/>
<path d="M870 4785 c-28 -45 -22 -63 19 -57 23 3 44 -4 79 -27 27 -17 60 -31
73 -31 19 0 12 8 -36 39 -67 43 -81 57 -86 85 -6 32 -26 29 -49 -9z"/>
<path d="M5014 4769 c-19 -31 68 -51 121 -27 36 16 34 43 -2 32 -36 -10 -63
-10 -90 -1 -13 5 -24 3 -29 -4z"/>
<path d="M5531 4750 c-9 -5 -11 -17 -7 -33 4 -16 0 -40 -11 -61 -9 -20 -14
-39 -10 -42 6 -7 83 41 93 58 3 5 -8 26 -23 48 -20 27 -33 36 -42 30z"/>
<path d="M765 4617 c-16 -28 -30 -56 -30 -60 0 -5 38 -10 85 -12 47 -2 148
-10 225 -19 l140 -15 17 22 c10 12 18 27 18 32 0 6 -26 26 -57 45 -52 31 -70
36 -178 46 -196 20 -185 22 -220 -39z"/>
<path d="M5423 4652 c-39 -3 -43 -7 -64 -48 -11 -25 -19 -48 -15 -51 8 -8 116
66 123 84 7 18 5 19 -44 15z"/>
<path d="M5640 4542 c0 -11 -56 -92 -124 -181 -120 -156 -124 -163 -113 -191
6 -17 14 -30 18 -30 4 0 31 11 61 24 48 21 66 39 143 138 48 62 92 118 97 125
13 16 -42 127 -64 131 -12 2 -18 -3 -18 -16z"/>
<path d="M920 4476 c119 -76 128 -83 132 -108 5 -35 25 -32 52 8 30 44 25 58
-15 49 -24 -6 -43 2 -107 42 -42 27 -93 53 -112 56 -29 6 -21 -2 50 -47z"/>
<path d="M5217 4523 c-6 -9 43 -93 53 -93 10 1 100 71 100 78 0 5 -26 8 -57 8
-32 -1 -65 3 -74 7 -10 5 -19 4 -22 0z"/>
<path d="M5463 4429 c-87 -43 -105 -49 -124 -39 -35 19 -44 -2 -20 -49 25 -48
35 -51 53 -13 9 19 39 40 99 71 48 25 92 53 98 63 15 25 10 23 -106 -33z"/>
<path d="M622 4334 c-12 -25 -20 -49 -17 -54 3 -4 58 -20 122 -35 157 -35 145
-30 131 -60 -10 -22 -9 -28 3 -35 10 -7 18 -2 28 20 8 17 22 30 32 30 28 0 49
-11 49 -26 0 -34 30 -9 54 47 35 80 34 86 -11 87 -21 0 -111 16 -200 36 -89
20 -164 36 -165 36 -2 0 -14 -21 -26 -46z"/>
<path d="M5738 4343 c-8 -17 -33 -38 -63 -53 -44 -22 -88 -60 -80 -68 2 -2 31
11 66 28 49 25 71 31 101 27 44 -6 47 3 21 58 -20 42 -28 44 -45 8z"/>
<path d="M675 4231 c4 -3 54 -42 113 -86 72 -54 108 -88 112 -105 9 -38 31
-30 51 17 19 45 12 61 -19 44 -22 -12 -34 -5 -132 69 -41 31 -88 59 -103 62
-15 3 -25 3 -22 -1z"/>
<path d="M5776 4162 c-83 -24 -82 -38 6 -45 40 -3 74 -4 76 -2 6 6 -9 65 -16
64 -4 0 -34 -8 -66 -17z"/>
<path d="M5760 4063 c-201 -58 -242 -67 -261 -55 -10 7 -21 12 -24 12 -10 0
-3 -57 14 -110 18 -55 44 -76 53 -43 4 14 44 29 178 66 96 26 175 49 176 50 8
8 -29 107 -39 106 -7 -1 -50 -12 -97 -26z"/>
<path d="M524 4016 c-21 -21 -34 -44 -34 -60 0 -27 18 -34 37 -15 18 18 143
-10 169 -38 31 -34 44 -29 44 17 0 81 -53 130 -140 130 -34 0 -48 -6 -76 -34z"/>
<path d="M5863 3942 c-6 -11 -28 -27 -48 -36 -32 -15 -44 -36 -22 -38 26 -2
127 27 127 36 -1 52 -34 74 -57 38z"/>
<path d="M471 3874 c-21 -83 -22 -92 -11 -99 6 -4 17 -1 25 5 21 18 313 -45
337 -72 10 -11 22 -17 27 -14 11 7 45 155 37 163 -3 4 -17 1 -29 -6 -20 -11
-47 -8 -173 20 -221 48 -201 47 -213 3z"/>
<path d="M5904 3813 c-15 -24 -321 -85 -346 -69 -27 16 -30 4 -16 -66 11 -61
13 -64 37 -60 84 14 375 73 379 77 7 7 -23 128 -33 132 -6 2 -15 -5 -21 -14z"/>
<path d="M809 3655 c-9 -9 -71 -19 -193 -29 -99 -9 -183 -19 -187 -23 -4 -5
-9 -28 -10 -51 -4 -56 7 -62 91 -52 36 5 91 10 123 13 57 4 57 3 57 -24 0 -15
5 -31 11 -35 14 -8 29 14 29 44 0 19 5 22 35 22 19 0 35 -4 35 -10 0 -5 6 -10
14 -10 15 0 26 49 26 117 0 47 -10 59 -31 38z"/>
<path d="M5944 3662 c-6 -4 -14 -20 -18 -35 -4 -16 -19 -35 -36 -45 -17 -9
-28 -21 -27 -27 4 -12 7 -12 70 -1 51 9 52 11 41 79 -7 38 -11 42 -30 29z"/>
<path d="M5726 3599 c-16 -16 -26 -32 -23 -35 10 -10 150 20 154 32 4 11 -6
14 -77 28 -18 3 -33 -4 -54 -25z"/>
<path d="M5560 3585 c0 -2 5 -26 11 -53 9 -44 13 -49 32 -45 105 24 122 36 67
47 -17 3 -42 17 -56 31 -22 22 -54 34 -54 20z"/>
<path d="M555 3456 c33 -12 95 -35 137 -50 52 -19 79 -34 83 -47 8 -23 31 -25
39 -3 12 31 7 84 -8 84 -8 0 -18 -4 -21 -10 -11 -17 -50 -11 -135 20 -45 17
-98 30 -118 30 -36 -1 -36 -2 23 -24z"/>
<path d="M5577 3423 c-4 -3 -7 -39 -7 -79 0 -75 13 -101 35 -71 11 15 37 17
199 17 l186 0 0 70 c0 54 -3 70 -14 70 -8 0 -18 -4 -21 -10 -4 -6 -73 -10
-176 -10 -106 0 -169 4 -169 10 0 11 -23 14 -33 3z"/>
<path d="M410 3231 c0 -81 11 -106 33 -78 10 13 42 16 172 18 88 1 175 -1 194
-6 l34 -8 -7 34 c-9 45 -32 78 -62 89 -14 6 -92 10 -174 10 -88 0 -151 4 -155
10 -3 6 -13 10 -21 10 -11 0 -14 -17 -14 -79z"/>
<path d="M5750 3255 c-9 -10 -32 -15 -77 -15 -55 0 -67 -4 -88 -25 -14 -13
-25 -29 -25 -34 0 -24 21 -61 44 -76 29 -19 54 -11 35 11 -10 12 -4 14 33 14
49 0 98 29 98 58 0 11 11 4 34 -21 27 -29 41 -37 69 -37 72 0 117 42 117 110
0 34 -21 41 -46 15 -10 -10 -35 -15 -73 -15 -40 0 -63 5 -71 15 -7 8 -18 15
-25 15 -7 0 -18 -7 -25 -15z"/>
<path d="M702 3148 c-55 -27 -30 -98 35 -98 37 0 93 45 93 74 0 19 -26 21 -33
4 -4 -9 -8 -10 -14 -2 -8 10 -48 35 -55 33 -2 0 -13 -5 -26 -11z"/>
<path d="M1198 1873 c-2 -22 -27 -45 -132 -120 -104 -75 -132 -91 -147 -83
-20 11 -35 -2 -23 -22 15 -27 109 -153 119 -160 18 -13 27 -9 22 11 -6 26 -4
28 103 107 165 121 161 118 181 106 20 -13 35 0 23 21 -30 50 -121 167 -131
167 -6 0 -13 -12 -15 -27z"/>
<path d="M5154 1862 c-16 -11 -124 -169 -124 -182 0 -7 10 -10 28 -6 22 5 48
-9 157 -84 101 -71 131 -96 133 -116 2 -14 9 -23 15 -21 13 4 127 165 127 179
0 5 -12 7 -27 4 -23 -4 -50 11 -158 87 -97 69 -130 98 -130 114 0 26 -7 34
-21 25z"/>
<path d="M1350 1672 c0 -23 -10 -36 -56 -67 l-56 -39 -18 25 c-14 18 -22 21
-30 13 -9 -9 -8 -18 4 -36 16 -25 16 -25 -43 -67 -47 -32 -66 -40 -86 -35 -38
9 -32 -8 36 -102 59 -80 98 -109 86 -64 -4 17 15 36 106 104 169 125 155 117
184 99 13 -9 23 -22 21 -29 -2 -7 -52 -63 -113 -124 -88 -90 -114 -111 -132
-107 -46 9 -34 -16 46 -95 77 -77 107 -91 96 -45 -5 18 17 44 112 139 70 69
123 114 129 110 6 -4 16 -16 22 -28 10 -18 -1 -38 -81 -155 -72 -103 -98 -134
-115 -134 -21 0 -27 -7 -20 -23 5 -12 166 -122 178 -122 7 0 9 10 6 28 -6 23
8 48 83 157 71 102 95 130 113 130 42 1 24 29 -47 77 -89 61 -279 247 -350
344 -30 41 -60 74 -65 74 -6 0 -10 -13 -10 -28z"/>
<path d="M4910 1548 c-25 -28 -45 -58 -45 -67 0 -9 38 -35 95 -66 150 -79 140
-69 108 -102 -22 -23 -25 -31 -16 -47 10 -18 13 -17 44 19 30 36 34 38 58 27
18 -8 26 -19 26 -37 0 -14 4 -25 9 -25 4 0 43 36 85 80 72 76 88 108 46 95
-11 -4 -81 27 -191 84 l-174 90 -45 -51z"/>
<path d="M4928 1358 c86 -155 102 -188 102 -216 0 -28 -21 -62 -38 -62 -4 1
-61 32 -127 69 l-120 69 2 45 c0 25 9 59 19 76 32 54 5 55 -69 3 -69 -49 -87
-78 -42 -70 39 8 47 -13 45 -104 -2 -46 -2 -87 -1 -93 0 -5 30 -28 66 -50 56
-34 65 -43 60 -62 -4 -17 -1 -23 11 -23 23 0 184 119 184 136 0 8 7 14 16 14
18 0 93 78 94 98 0 9 -9 11 -34 7 l-34 -7 -53 101 c-47 87 -76 121 -105 121
-3 0 8 -24 24 -52z"/>
<path d="M4480 1184 c-50 -36 -125 -81 -166 -101 -78 -37 -96 -63 -44 -63 26
0 30 -4 30 -27 0 -16 -7 -50 -15 -77 -25 -82 -21 -97 40 -155 45 -43 54 -57
49 -77 -9 -33 4 -31 116 24 94 47 110 62 71 72 -11 3 -68 45 -125 93 l-104 89
14 41 c17 48 60 97 85 97 10 0 53 -50 109 -127 76 -107 90 -133 86 -155 -8
-40 9 -36 89 23 39 27 75 53 82 57 23 14 19 37 -6 37 -19 0 -43 26 -118 129
-82 112 -93 132 -88 157 4 17 2 29 -3 29 -6 0 -51 -30 -102 -66z"/>
<path d="M1895 1157 c8 -42 -1 -50 -85 -72 -36 -10 -71 -24 -79 -31 -7 -6 -21
-45 -31 -86 -14 -61 -21 -74 -38 -76 -12 -2 -22 -7 -22 -12 0 -12 180 -137
187 -130 3 3 7 30 9 60 3 61 38 247 49 258 4 4 39 7 78 8 39 1 73 6 74 11 4
11 -118 103 -137 103 -7 0 -9 -12 -5 -33z"/>
<path d="M2162 1028 c-6 -8 -18 -67 -28 -133 -10 -66 -19 -122 -20 -123 -1 -2
-19 2 -38 9 -27 10 -39 10 -47 2 -9 -9 -1 -17 33 -34 40 -19 44 -24 40 -50 -3
-21 -10 -29 -24 -29 -13 0 -18 -6 -16 -17 3 -18 194 -110 205 -99 4 4 2 16 -5
27 -7 11 -11 28 -8 37 3 9 15 88 26 175 12 87 23 164 26 172 4 9 -11 22 -43
38 -68 35 -88 39 -101 25z"/>
<path d="M4078 973 c-92 -43 -124 -73 -78 -73 17 0 34 -29 91 -147 62 -130 68
-150 58 -170 -7 -13 -10 -25 -7 -28 10 -10 208 87 208 101 0 8 -9 14 -20 14
-29 0 -167 286 -151 312 13 21 14 38 4 37 -5 0 -52 -21 -105 -46z"/>
<path d="M2098 961 c-7 -10 -52 -60 -99 -110 -73 -77 -91 -91 -118 -91 -19 0
-31 -5 -31 -14 0 -18 119 -71 131 -59 6 6 4 15 -6 23 -26 22 -17 40 60 125 46
51 77 95 81 114 7 35 1 39 -18 12z"/>
<path d="M2410 917 c0 -7 5 -18 10 -23 8 -8 -4 -59 -36 -167 -42 -138 -50
-156 -71 -162 -14 -3 -23 -11 -21 -17 5 -13 172 -67 212 -67 l29 -1 -21 23
-21 22 46 150 c25 83 49 162 53 177 8 26 7 27 -75 52 -95 30 -105 31 -105 13z"/>
<path d="M3775 871 c-27 -10 -51 -25 -53 -33 -2 -9 28 -65 66 -126 l70 -109
-39 -12 c-28 -9 -39 -17 -39 -31 0 -24 -3 -24 51 -5 42 15 44 15 61 -7 20 -27
22 -34 8 -43 -18 -11 -11 -25 13 -24 38 1 190 54 195 67 2 7 -5 16 -16 19 -13
3 -60 65 -123 164 -113 175 -107 170 -194 140z"/>
<path d="M2620 855 c0 -8 5 -24 12 -35 18 -29 -9 -133 -37 -139 -29 -5 -35
-21 -19 -45 11 -18 11 -30 -2 -79 -13 -50 -13 -60 0 -86 17 -32 60 -51 115
-51 46 0 87 26 71 45 -6 8 -18 11 -25 9 -11 -4 -13 8 -12 57 2 60 1 64 -30 85
l-32 21 42 6 c81 11 114 93 62 156 -15 17 -50 39 -81 50 -65 25 -64 25 -64 6z"/>
<path d="M3525 810 c-3 -5 -35 -10 -70 -10 -53 0 -63 -3 -59 -15 4 -9 19 -15
37 -15 24 0 42 -11 79 -50 55 -57 83 -66 74 -22 -3 15 -8 48 -12 75 -5 36 -10
47 -25 47 -10 0 -21 -4 -24 -10z"/>
<path d="M2840 803 c0 -3 7 -14 16 -24 14 -15 15 -28 6 -91 -6 -40 -16 -112
-23 -160 -10 -69 -16 -89 -31 -94 -20 -6 -25 -34 -5 -34 6 0 55 -7 107 -14 98
-15 131 -9 95 17 -18 14 -17 19 4 173 13 87 25 162 28 167 2 4 11 7 19 7 23 0
16 29 -8 35 -29 6 -175 25 -194 25 -8 0 -14 -3 -14 -7z"/>
<path d="M3288 761 c-59 -38 -88 -96 -88 -177 1 -97 42 -165 122 -199 70 -29
138 -14 91 20 -13 10 -25 56 -44 171 -24 138 -26 161 -13 175 41 45 -2 52 -68
10z"/>
<path d="M3718 615 c-5 -136 -7 -150 -27 -166 -24 -20 -28 -39 -6 -39 8 0 39
8 70 17 58 18 70 37 33 49 -13 4 -26 12 -30 18 -4 6 -5 58 -2 116 5 93 3 108
-14 129 -19 24 -19 24 -24 -124z"/>
<path d="M3550 610 c-19 -4 -56 -11 -82 -15 -52 -7 -62 -24 -26 -40 29 -13 47
-104 28 -140 -7 -13 -11 -28 -9 -33 5 -14 97 22 133 52 29 24 29 25 18 82 -9
41 -9 61 -1 70 12 15 4 35 -14 33 -7 -1 -28 -5 -47 -9z"/>
</g>
</svg>
